<svg viewBox="0 0 128 128" xmlns="http://www.w3.org/2000/svg">
  <defs>
    <linearGradient id="respGrad" x1="0%" y1="0%" x2="100%" y2="100%">
      <stop offset="0%" style="stop-color:#2196F3;stop-opacity:1" />
      <stop offset="100%" style="stop-color:#1565C0;stop-opacity:1" />
    </linearGradient>
  </defs>
  <circle cx="64" cy="64" r="56" fill="#FFFFFF" stroke="#E8E8E8" stroke-width="1"/>
  <path d="M 35 45 L 65 45 Q 70 45 70 50 L 70 70 Q 70 75 65 75 L 35 75 Q 30 75 30 70 L 30 50 Q 30 45 35 45" fill="none" stroke="url(#respGrad)" stroke-width="2.5"/>
  <path d="M 58 85 L 98 85 Q 100 85 100 87 L 100 95 Q 100 98 98 98 L 58 98 Q 56 98 56 95 L 56 87 Q 56 85 58 85" fill="none" stroke="url(#respGrad)" stroke-width="2"/>
  <line x1="72" y1="78" x2="75" y2="82" stroke="url(#respGrad)" stroke-width="1.5" stroke-linecap="round"/>
</svg>
